# xmcd
#
# Track frame offsets:
# 150
# 10517
# 24685
# 35025
# 44709
# 57384
# 69415
# 84753
# 98937
# 108443
# 120801
# 132943
# 148638
# 170645
# 188800
# 206320
# 221507
# 237221
# 254360
#
# Disc length: 3639 seconds
#
# Revision: 0
# Processed by: cddbd v1.4PL0 Copyright (c) Steve Scherf et al.
# Submitted via: Audion 3.0.2 (http://www.panic.com/audion/)
#
DISCID=060e3513
DTITLE=Various Artist - Rockhouse
DYEAR=1900
DGENRE=
TTITLE0=Crazy Little Thing
TTITLE1=Don't Be Cruel
TTITLE2=Run Around Sue
TTITLE3=All Shook Up
TTITLE4=Mack The Knife
TTITLE5=I Get A Thrill
TTITLE6=Rock This Town
TTITLE7=Johnny B. Goode
TTITLE8=Come Go With Me
TTITLE9=Crazy Little Thing (orig)
TTITLE10=Be Bop A Lula
TTITLE11=Big 'n Hot
TTITLE12=Ray's Rockhouse
TTITLE13=Look At That Cadillac
TTITLE14=Gloria
TTITLE15=Hold Me, Thrill Me, Kiss Me
TTITLE16=Stand By Me
TTITLE17=Sleepwalk
TTITLE18=Since I Fell For You
EXTD=
EXTT0=
EXTT1=
EXTT2=
EXTT3=
EXTT4=
EXTT5=
EXTT6=
EXTT7=
EXTT8=
EXTT9=
EXTT10=
EXTT11=
EXTT12=
EXTT13=
EXTT14=
EXTT15=
EXTT16=
EXTT17=
EXTT18=
PLAYORDER=
